<?xml version="1.0" encoding="UTF-8"?>
<svg xmlns="http://www.w3.org/2000/svg" width="134" height="33" viewBox="0 0 134 33"><defs><clipPath id="qi99a"><path d="M90.603 11.259c0-2.228.755-4.1 2.261-5.615 1.505-1.534 3.351-2.3 5.538-2.3 2.194 0 4.036.766 5.523 2.3 1.496 1.524 2.244 3.415 2.244 5.67 0 2.228-.756 4.117-2.27 5.67-1.516 1.536-3.377 2.302-5.58 2.302-2.033 0-3.824-.751-5.374-2.262-1.56-1.505-2.342-3.428-2.342-5.765m-26.038 20.35c10.868 3.545 19.233-3.578 19.233-3.578-3.681 2.085-8.377 3.28-19.233-.245-10.856-3.523-20.744 3.58-20.744 3.58 3.681-2.087 9.876-3.3 20.744.243M72.038.142l-7.524 14.733L56.991.142 47.8 21.892h3.372L57.258 7.49l7.256 14.206L71.77 7.49c1.422 3.369 4.7 11.122 6.087 14.401h3.372zm48.17 3.593h1.429c2.704 0 4.75.644 6.138 1.933 1.542 1.443 2.314 3.325 2.314 5.646 0 2.303-.78 4.17-2.342 5.605a7.206 7.206 0 0 1-2.559 1.52c-.942.304-2.126.454-3.551.454h-1.429zm1.194 18.157c2.131 0 3.777-.196 4.94-.589 1.244-.392 2.43-1.092 3.566-2.097 2.26-2.008 3.39-4.64 3.39-7.892 0-3.242-1.084-5.86-3.254-7.85-1.07-.987-2.263-1.686-3.58-2.097-1.224-.42-2.895-.63-5.009-.63h-4.41v21.155zM0 21.732h3.826V0H0zm35.962 0h3.826V0h-3.826zM27.546 1.58C25.842.527 24.074 0 22.246 0c-3.35 0-6.078 1.328-8.191 3.98-1.718 2.168-2.578 4.635-2.578 7.401 0 3.084 1.026 5.72 3.082 7.906 2.056 2.167 4.54 3.25 7.448 3.25 1.935 0 3.781-.532 5.539-1.596v-3.954c-.5.449-.978.832-1.43 1.151-.453.32-.89.572-1.311.758-.756.376-1.676.565-2.757.565-2.093 0-3.86-.784-5.3-2.353-1.443-1.566-2.163-3.49-2.163-5.77 0-2.307.72-4.258 2.162-5.854 1.434-1.604 3.194-2.407 5.289-2.407 1.898 0 3.734.793 5.51 2.375V1.58m59.849 9.643c0 3.392 1.188 6.132 3.57 8.226 2.16 1.889 4.597 2.834 7.314 2.834 3.069 0 5.688-1.062 7.858-3.193 2.162-2.118 3.243-4.698 3.243-7.743 0-3.024-1.077-5.613-3.23-7.768-2.143-2.156-4.711-3.234-7.71-3.234-3.031 0-5.628 1.068-7.788 3.208-2.172 2.137-3.257 4.694-3.257 7.67"/></clipPath></defs><g><g><g><g><path fill="#036cb6" d="M90.603 11.259c0-2.228.755-4.1 2.261-5.615 1.505-1.534 3.351-2.3 5.538-2.3 2.194 0 4.036.766 5.523 2.3 1.496 1.524 2.244 3.415 2.244 5.67 0 2.228-.756 4.117-2.27 5.67-1.516 1.536-3.377 2.302-5.58 2.302-2.033 0-3.824-.751-5.374-2.262-1.56-1.505-2.342-3.428-2.342-5.765m-26.038 20.35c10.868 3.545 19.233-3.578 19.233-3.578-3.681 2.085-8.377 3.28-19.233-.245-10.856-3.523-20.744 3.58-20.744 3.58 3.681-2.087 9.876-3.3 20.744.243M72.038.142l-7.524 14.733L56.991.142 47.8 21.892h3.372L57.258 7.49l7.256 14.206L71.77 7.49c1.422 3.369 4.7 11.122 6.087 14.401h3.372zm48.17 3.593h1.429c2.704 0 4.75.644 6.138 1.933 1.542 1.443 2.314 3.325 2.314 5.646 0 2.303-.78 4.17-2.342 5.605a7.206 7.206 0 0 1-2.559 1.52c-.942.304-2.126.454-3.551.454h-1.429zm1.194 18.157c2.131 0 3.777-.196 4.94-.589 1.244-.392 2.43-1.092 3.566-2.097 2.26-2.008 3.39-4.64 3.39-7.892 0-3.242-1.084-5.86-3.254-7.85-1.07-.987-2.263-1.686-3.58-2.097-1.224-.42-2.895-.63-5.009-.63h-4.41v21.155zM0 21.732h3.826V0H0zm35.962 0h3.826V0h-3.826zM27.546 1.58C25.842.527 24.074 0 22.246 0c-3.35 0-6.078 1.328-8.191 3.98-1.718 2.168-2.578 4.635-2.578 7.401 0 3.084 1.026 5.72 3.082 7.906 2.056 2.167 4.54 3.25 7.448 3.25 1.935 0 3.781-.532 5.539-1.596v-3.954c-.5.449-.978.832-1.43 1.151-.453.32-.89.572-1.311.758-.756.376-1.676.565-2.757.565-2.093 0-3.86-.784-5.3-2.353-1.443-1.566-2.163-3.49-2.163-5.77 0-2.307.72-4.258 2.162-5.854 1.434-1.604 3.194-2.407 5.289-2.407 1.898 0 3.734.793 5.51 2.375V1.58m59.849 9.643c0 3.392 1.188 6.132 3.57 8.226 2.16 1.889 4.597 2.834 7.314 2.834 3.069 0 5.688-1.062 7.858-3.193 2.162-2.118 3.243-4.698 3.243-7.743 0-3.024-1.077-5.613-3.23-7.768-2.143-2.156-4.711-3.234-7.71-3.234-3.031 0-5.628 1.068-7.788 3.208-2.172 2.137-3.257 4.694-3.257 7.67"/></g><g clip-path="url(#qi99a)"><g><path fill="#036cb6" d="M0 0h134v33H0z"/></g></g></g></g></g></svg>